<?xml version="1.0" standalone="no"?>
<!DOCTYPE svg PUBLIC "-//W3C//DTD SVG 20010904//EN"
 "http://www.w3.org/TR/2001/REC-SVG-20010904/DTD/svg10.dtd">
<svg version="1.0" xmlns="http://www.w3.org/2000/svg"
 width="346.000000pt" height="346.000000pt" viewBox="0 0 346.000000 346.000000"
 preserveAspectRatio="xMidYMid meet">
<metadata>
Created by potrace 1.11, written by Peter Selinger 2001-2013
</metadata>
<g transform="translate(0.000000,346.000000) scale(0.100000,-0.100000)"
fill="#000000" stroke="none">
<path d="M1462 3415 c-114 -17 -283 -61 -299 -78 -6 -7 -27 -46 -46 -88 l-34
-76 136 -6 c115 -6 277 -25 434 -53 l37 -7 0 -266 0 -267 -32 -18 c-88 -51
-337 -221 -485 -332 -91 -68 -169 -124 -172 -124 -5 0 -544 151 -548 154 -5 4
32 212 57 316 41 168 68 250 94 280 19 22 19 23 1 9 -12 -10 -56 -21 -115 -28
-109 -12 -100 -5 -201 -156 -146 -216 -240 -463 -274 -723 -24 -183 -25 -179
50 -237 35 -27 67 -59 70 -70 3 -11 8 -60 11 -110 4 -72 38 -259 50 -273 1 -2
10 -5 20 -6 13 -2 27 -30 51 -102 l34 -99 -28 -106 -27 -105 53 -77 c115 -166
249 -302 417 -423 97 -70 341 -196 415 -216 46 -11 48 -11 98 25 53 39 67 45
55 25 -4 -7 -3 -8 5 -4 6 4 9 11 6 16 -3 4 10 18 28 31 l32 24 345 -1 c242 0
345 -4 345 -11 0 -6 4 -15 9 -20 5 -5 6 -3 2 5 -12 21 0 14 81 -44 91 -66 92
-66 232 -6 301 130 580 364 749 629 l33 51 -29 101 -29 100 53 158 c29 87 55
163 57 168 2 6 2 -17 0 -50 l-4 -60 26 70 c14 39 32 93 40 120 38 134 56 178
84 211 31 34 44 82 19 68 -7 -4 -3 4 8 17 21 23 21 29 13 128 -25 286 -121
560 -278 793 -110 161 -94 149 -204 162 -71 8 -101 16 -114 30 -17 18 -17 18
7 3 14 -8 57 -18 95 -21 l70 -6 -80 20 c-43 12 -101 35 -129 53 -28 17 -53 32
-56 32 -3 0 -55 32 -115 71 -61 39 -137 86 -170 103 -71 38 -57 27 75 -55 54
-34 134 -89 179 -123 84 -64 107 -76 75 -38 l-19 22 22 -19 c13 -10 21 -22 18
-26 -2 -4 7 -18 20 -30 30 -28 71 -151 108 -320 27 -121 51 -269 45 -275 -4
-5 -527 -155 -538 -155 -5 0 -73 48 -152 108 -147 110 -365 259 -475 326 l-63
37 0 268 0 268 98 16 c173 30 275 40 397 41 l120 1 -47 91 -48 92 -80 21
c-146 40 -243 53 -420 56 -119 3 -205 0 -268 -10z m-207 -215 c-16 -4 -43 -8
-60 -8 -25 -1 -27 1 -10 8 11 5 38 8 60 8 38 0 39 -1 10 -8z m-736 -467 c-21
-61 -79 -332 -79 -370 0 -34 -17 -28 -24 8 -14 73 0 168 45 306 20 61 52 113
69 113 5 0 0 -26 -11 -57z m1076 -252 c-33 -29 -325 -234 -325 -227 0 9 164
133 245 185 76 48 101 62 80 42z m-901 -312 c133 -39 255 -75 271 -80 30 -9
32 -13 83 -197 29 -103 80 -266 112 -362 62 -185 75 -242 20 -90 -18 50 -34
89 -36 87 -2 -2 12 -61 31 -131 19 -71 35 -135 35 -143 0 -8 5 -11 11 -7 20
12 7 -9 -164 -249 l-169 -236 -51 20 c-85 33 -346 165 -436 222 -75 47 -85 57
-103 102 -32 84 -114 375 -133 472 l-19 92 29 68 c61 143 256 503 274 503 2 0
113 -32 245 -71z m2321 -39 c65 -108 222 -421 225 -450 5 -34 -1 -71 -9 -66
-5 3 -18 -32 -29 -77 -12 -46 -25 -92 -29 -103 -6 -17 -5 -18 11 -4 18 14 18
13 11 -20 -14 -65 -95 -305 -114 -336 -11 -19 -55 -53 -112 -86 -152 -91 -454
-236 -466 -225 -2 3 -84 118 -182 256 l-179 251 40 113 c54 149 141 425 180
567 17 63 35 119 39 124 4 5 128 44 276 87 147 42 269 78 270 78 1 1 32 -48
68 -109z m-1310 -882 c121 -1 189 -4 150 -7 -55 -5 -36 -7 90 -11 l160 -5 63
-85 c35 -47 70 -86 78 -88 19 -5 18 5 -7 39 -11 16 -18 29 -16 29 6 0 77 -98
77 -106 0 -3 -6 -2 -12 2 -8 4 -10 3 -5 -2 5 -5 14 -9 20 -9 5 0 12 -6 15 -14
3 -9 0 -11 -9 -5 -12 7 -12 5 0 -9 15 -18 26 -23 16 -7 -3 6 -4 10 -1 10 2 0
41 -52 86 -115 l82 -115 -73 -88 c-39 -48 -141 -155 -226 -239 l-153 -151 -95
-7 c-52 -4 -201 -6 -332 -3 -206 3 -241 6 -263 21 -84 59 -440 438 -440 468 0
9 8 23 17 30 14 12 16 12 8 0 -5 -9 -4 -12 3 -7 6 4 9 13 6 20 -3 8 0 17 7 22
8 5 10 3 4 -7 -5 -8 -4 -11 1 -6 5 5 9 16 9 25 0 9 5 16 11 15 7 -1 11 5 10
15 0 9 6 17 14 17 8 0 15 9 15 20 0 11 6 19 13 17 8 -1 11 2 7 7 -3 6 47 85
112 177 l118 166 110 -6 c61 -3 209 -7 330 -8z m506 -105 c13 -16 12 -17 -3
-4 -17 13 -22 21 -14 21 2 0 10 -8 17 -17z"/>
<path d="M2386 868 c56 -81 97 -132 79 -98 -14 25 -127 180 -132 180 -2 0 21
-37 53 -82z"/>
<path d="M689 2923 c-13 -16 -12 -17 4 -4 9 7 17 15 17 17 0 8 -8 3 -21 -13z"/>
<path d="M644 2888 l-19 -23 23 19 c21 18 27 26 19 26 -2 0 -12 -10 -23 -22z"/>
<path d="M3356 1503 c-6 -14 -5 -15 5 -6 7 7 10 15 7 18 -3 3 -9 -2 -12 -12z"/>
<path d="M3270 1305 c-35 -52 -67 -92 -72 -89 -16 10 -8 -127 9 -164 l17 -36
24 55 c34 77 81 228 84 269 2 19 7 38 12 41 4 4 4 9 -1 12 -6 4 -39 -36 -73
-88z"/>
<path d="M1950 231 c0 -5 -46 -8 -102 -6 -89 2 -93 2 -28 -4 l75 -6 -70 -13
c-38 -8 -140 -16 -225 -18 -129 -3 -243 -13 -331 -27 -9 -2 -27 -10 -40 -19
l-24 -16 28 -11 c15 -6 66 -19 115 -28 48 -10 88 -20 90 -23 1 -3 20 -4 42 -2
22 2 40 0 40 -4 0 -8 90 -14 185 -13 129 2 165 5 165 12 0 4 15 7 34 7 31 0
197 31 239 44 9 3 24 8 34 11 12 4 0 17 -45 50 -34 25 -65 44 -69 44 -5 -1
-28 2 -53 7 l-45 8 35 7 35 6 -42 2 c-24 0 -43 -3 -43 -8z"/>
</g>
</svg>
